<?xml version="1.0" encoding="utf-8"?><svg xml:space="preserve" viewBox="0 0 100 100" y="0" x="0" xmlns="http://www.w3.org/2000/svg" id="圖層_1" version="1.1" width="200px" height="200px" xmlns:xlink="http://www.w3.org/1999/xlink" style="width:100%;height:100%;background-size:initial;background-repeat-y:initial;background-repeat-x:initial;background-position-y:initial;background-position-x:initial;background-origin:initial;background-color:initial;background-clip:initial;background-attachment:initial;animation-play-state:paused" ><g class="ldl-scale" style="transform-origin:50% 50%;transform:rotate(0deg) scale(0.8, 0.8);animation-play-state:paused" ><g style="animation-play-state:paused" ><path fill="#c33737" d="M11.6 7.5l20.8 47.4c1.1 2.5 4 3.7 6.6 2.6l13.8-6c2.5-1.1 3.7-4 2.6-6.6L38.9 7.5H11.6z" style="fill:rgb(195, 55, 55);animation-play-state:paused" ></path>
<path fill="#c33737" d="M61.1 7.5L44.7 44.9c-1.1 2.5 0 5.5 2.6 6.6l13.8 6c2.5 1.1 5.5 0 6.6-2.6L88.4 7.5H61.1z" style="fill:rgb(195, 55, 55);animation-play-state:paused" ></path></g>
<g style="animation-play-state:paused" ><path fill="#f47e60" d="M65.7 34L34.5 88.1c4.7 2.8 10.1 4.4 15.9 4.4 17.3 0 31.2-14 31.2-31.2.1-11.7-6.4-21.9-15.9-27.3z" style="fill:rgb(244, 126, 96);animation-play-state:paused" ></path>
<path fill="#f8b26a" d="M50.4 30c-17.3 0-31.2 14-31.2 31.2 0 11.4 6.1 21.4 15.3 26.9L65.7 34c-4.5-2.5-9.7-4-15.3-4z" style="fill:rgb(248, 178, 106);animation-play-state:paused" ></path>
<path fill="#ffdc6c" d="M60.1 43.8l-20 34.6c3 1.8 6.5 2.9 10.3 2.9 11 0 20-9 20-20 0-7.6-4.1-14.1-10.3-17.5z" style="fill:rgb(255, 220, 108);animation-play-state:paused" ></path>
<path fill="#f5e6c8" d="M50.4 41.2c-11 0-20 9-20 20 0 7.3 3.9 13.6 9.7 17.1l20-34.6c-2.9-1.5-6.2-2.5-9.7-2.5z" style="fill:rgb(245, 230, 200);animation-play-state:paused" ></path></g>
<metadata xmlns:d="https://loading.io/stock/" style="animation-play-state:paused" ><d:name style="animation-play-state:paused" >medal</d:name>


<d:tags style="animation-play-state:paused" >badge,prize,winner,trophy,honor,gold,medal,web application</d:tags>


<d:license style="animation-play-state:paused" >by</d:license>


<d:slug style="animation-play-state:paused" >jq6tm9</d:slug></metadata></g><!-- generated by https://loading.io/ --></svg>